<svg width="1400" height="900" viewBox="0 0 1400 900" fill="none" xmlns="http://www.w3.org/2000/svg">
  <defs>
    <linearGradient id="casesBase" x1="0" y1="0" x2="0" y2="900" gradientUnits="userSpaceOnUse">
      <stop offset="0" stop-color="#02040A"/>
      <stop offset="1" stop-color="#04060E"/>
    </linearGradient>
    <linearGradient id="casesLines" x1="0" y1="0" x2="1" y2="1" gradientUnits="objectBoundingBox">
      <stop offset="0" stop-color="#74D0FF" stop-opacity="0.35"/>
      <stop offset="0.5" stop-color="#F7D87B" stop-opacity="0.18"/>
      <stop offset="1" stop-color="#FFE7C0" stop-opacity="0.28"/>
    </linearGradient>
  </defs>
  <rect width="1400" height="900" fill="url(#casesBase)"/>
  <g opacity="0.32" stroke="url(#casesLines)" stroke-width="1.2">
    <path d="M160 160L1240 160" stroke-dasharray="20 16"/>
    <path d="M160 320L1240 320" stroke-dasharray="24 18"/>
    <path d="M160 480L1240 480" stroke-dasharray="28 20"/>
    <path d="M160 640L1240 640" stroke-dasharray="24 24"/>
    <path d="M160 800L1240 800" stroke-dasharray="20 20"/>
    <path d="M320 80L320 840" stroke-dasharray="20 20"/>
    <path d="M560 80L560 840" stroke-dasharray="24 18"/>
    <path d="M800 80L800 840" stroke-dasharray="26 18"/>
    <path d="M1040 80L1040 840" stroke-dasharray="24 16"/>
  </g>
  <g fill="#FFE7C0" fill-opacity="0.4">
    <circle cx="420" cy="260" r="2"/>
    <circle cx="940" cy="420" r="1.6"/>
    <circle cx="680" cy="620" r="1.4"/>
    <circle cx="1080" cy="260" r="1.5"/>
  </g>
  <g fill="#74D0FF" fill-opacity="0.32">
    <circle cx="520" cy="420" r="1.4"/>
    <circle cx="840" cy="260" r="1.2"/>
    <circle cx="1180" cy="620" r="1.6"/>
  </g>
</svg>
