<svg width="1600" height="520" viewBox="0 0 1600 520" fill="none" xmlns="http://www.w3.org/2000/svg">
  <rect width="1600" height="520" fill="url(#paint0_radial)" opacity="0.9"/>
  <path d="M0 420C180 360 320 440 520 380C720 320 940 260 1160 360C1280 410 1440 400 1600 360V520H0V420Z" fill="url(#paint1_linear)" opacity="0.5"/>
  <path d="M0 360C220 320 420 420 640 360C860 300 1100 240 1320 320C1440 360 1600 330 1600 330" stroke="url(#paint2_linear)" stroke-width="3" stroke-linecap="round" opacity="0.45"/>
  <g opacity="0.65">
    <circle cx="180" cy="180" r="2.4" fill="#F7D87B"/>
    <circle cx="420" cy="120" r="3" fill="#7EC9FF"/>
    <circle cx="720" cy="200" r="2" fill="#FFF2C9"/>
    <circle cx="980" cy="140" r="2.6" fill="#F7D87B"/>
    <circle cx="1220" cy="220" r="2.2" fill="#7EC9FF"/>
    <circle cx="1460" cy="160" r="2.4" fill="#FFF2C9"/>
  </g>
  <g opacity="0.45">
    <circle cx="260" cy="460" r="1.6" fill="#FFF2C9"/>
    <circle cx="560" cy="500" r="1.9" fill="#7EC9FF"/>
    <circle cx="840" cy="470" r="1.8" fill="#F7D87B"/>
    <circle cx="1120" cy="500" r="1.7" fill="#FFF2C9"/>
    <circle cx="1400" cy="470" r="2" fill="#7EC9FF"/>
  </g>
  <defs>
    <radialGradient id="paint0_radial" cx="0" cy="0" r="1" gradientUnits="userSpaceOnUse" gradientTransform="translate(800 80) rotate(90) scale(520 780)">
      <stop offset="0" stop-color="#7EC9FF" stop-opacity="0.55"/>
      <stop offset="0.4" stop-color="#F7D87B" stop-opacity="0.45"/>
      <stop offset="1" stop-color="#020409" stop-opacity="0"/>
    </radialGradient>
    <linearGradient id="paint1_linear" x1="0" y1="520" x2="0" y2="320" gradientUnits="userSpaceOnUse">
      <stop stop-color="#020409" stop-opacity="0"/>
      <stop offset="0.4" stop-color="#0B1020" stop-opacity="0.7"/>
      <stop offset="1" stop-color="#0F1628" stop-opacity="0.9"/>
    </linearGradient>
    <linearGradient id="paint2_linear" x1="0" y1="320" x2="1600" y2="320" gradientUnits="userSpaceOnUse">
      <stop stop-color="#F7D87B" stop-opacity="0"/>
      <stop offset="0.3" stop-color="#F7D87B"/>
      <stop offset="0.6" stop-color="#7EC9FF"/>
      <stop offset="1" stop-color="#F7D87B" stop-opacity="0"/>
    </linearGradient>
  </defs>
</svg>
