<svg width="1400" height="800" viewBox="0 0 1400 800" fill="none" xmlns="http://www.w3.org/2000/svg">
  <defs>
    <radialGradient id="guaranteeCenter" cx="0" cy="0" r="1" gradientUnits="userSpaceOnUse" gradientTransform="translate(700 400) rotate(90) scale(520 620)">
      <stop offset="0" stop-color="#F7D87B" stop-opacity="0.6"/>
      <stop offset="0.35" stop-color="#F7D87B" stop-opacity="0.18"/>
      <stop offset="1" stop-color="#020409" stop-opacity="0"/>
    </radialGradient>
  </defs>
  <rect width="1400" height="800" fill="#03060E"/>
  <rect width="1400" height="800" fill="url(#guaranteeCenter)"/>
  <g fill="#FFE7C0" fill-opacity="0.5">
    <circle cx="220" cy="360" r="1.6"/>
    <circle cx="340" cy="460" r="1.8"/>
    <circle cx="640" cy="260" r="1.4"/>
    <circle cx="880" cy="520" r="1.2"/>
    <circle cx="1100" cy="300" r="1.9"/>
    <circle cx="1220" cy="430" r="1.5"/>
  </g>
  <g fill="#7BD7FF" fill-opacity="0.35">
    <circle cx="300" cy="540" r="1.2"/>
    <circle cx="480" cy="320" r="1.3"/>
    <circle cx="820" cy="360" r="1.1"/>
    <circle cx="980" cy="600" r="1.4"/>
  </g>
  <g stroke="#FFE7C0" stroke-opacity="0.22" stroke-width="1.2" stroke-linecap="round">
    <path d="M240 520C420 440 540 440 720 520C900 600 1040 600 1180 520" stroke-dasharray="8 20"/>
    <path d="M320 360C520 260 700 280 920 360C1140 440 1260 440 1380 360" stroke-dasharray="6 24"/>
  </g>
</svg>
