<svg width="1600" height="900" viewBox="0 0 1600 900" fill="none" xmlns="http://www.w3.org/2000/svg">
  <defs>
    <radialGradient id="heroGlow" cx="0" cy="0" r="1" gradientUnits="userSpaceOnUse" gradientTransform="translate(800 320) rotate(90) scale(520 620)">
      <stop offset="0" stop-color="#FFE6B4" stop-opacity="0.75"/>
      <stop offset="0.36" stop-color="#F7D87B" stop-opacity="0.22"/>
      <stop offset="1" stop-color="#02050C" stop-opacity="0"/>
    </radialGradient>
    <linearGradient id="heroAurora" x1="200" y1="120" x2="1400" y2="720" gradientUnits="userSpaceOnUse">
      <stop offset="0" stop-color="#74D0FF" stop-opacity="0.22"/>
      <stop offset="0.45" stop-color="#8FE6F4" stop-opacity="0.12"/>
      <stop offset="1" stop-color="#F7D87B" stop-opacity="0.18"/>
    </linearGradient>
    <linearGradient id="heroArc" x1="0" y1="0" x2="1" y2="1" gradientUnits="objectBoundingBox">
      <stop offset="0" stop-color="#FFE7C8" stop-opacity="0.85"/>
      <stop offset="0.5" stop-color="#FAD37C" stop-opacity="0.2"/>
      <stop offset="1" stop-color="#74D0FF" stop-opacity="0.05"/>
    </linearGradient>
  </defs>
  <rect width="1600" height="900" fill="#03050B"/>
  <rect width="1600" height="900" fill="url(#heroGlow)"/>
  <path d="M-40 720C240 520 520 860 800 640C1080 420 1260 160 1640 340" stroke="url(#heroAurora)" stroke-width="120" stroke-opacity="0.22"/>
  <path d="M180 640C420 470 700 520 940 380" stroke="url(#heroArc)" stroke-width="4" stroke-linecap="round" stroke-dasharray="6 24"/>
  <path d="M320 220C520 120 780 140 980 260" stroke="url(#heroArc)" stroke-width="3" stroke-linecap="round" stroke-dasharray="3 18"/>
  <g fill="#F7D87B" fill-opacity="0.6">
    <circle cx="320" cy="180" r="1.6"/>
    <circle cx="540" cy="260" r="2.2"/>
    <circle cx="900" cy="220" r="1.3"/>
    <circle cx="1080" cy="420" r="1.8"/>
    <circle cx="720" cy="520" r="1.4"/>
    <circle cx="1240" cy="320" r="1.2"/>
    <circle cx="1320" cy="560" r="1.9"/>
  </g>
  <g fill="#7BD7FF" fill-opacity="0.38">
    <circle cx="260" cy="420" r="1.2"/>
    <circle cx="680" cy="180" r="1.4"/>
    <circle cx="860" cy="520" r="1.1"/>
    <circle cx="1180" cy="260" r="1.6"/>
    <circle cx="1400" cy="440" r="1.2"/>
  </g>
</svg>
