<svg width="1400" height="900" viewBox="0 0 1400 900" fill="none" xmlns="http://www.w3.org/2000/svg">
  <defs>
    <linearGradient id="tiersBase" x1="0" y1="0" x2="0" y2="900" gradientUnits="userSpaceOnUse">
      <stop offset="0" stop-color="#03050B"/>
      <stop offset="1" stop-color="#050A13"/>
    </linearGradient>
    <linearGradient id="tiersGlow" x1="0" y1="0" x2="1" y2="1" gradientUnits="objectBoundingBox">
      <stop offset="0" stop-color="#F7D87B" stop-opacity="0.45"/>
      <stop offset="0.4" stop-color="#FFE7C0" stop-opacity="0.12"/>
      <stop offset="1" stop-color="#7BD7FF" stop-opacity="0.26"/>
    </linearGradient>
  </defs>
  <rect width="1400" height="900" fill="url(#tiersBase)"/>
  <path d="M-60 720C140 620 340 640 560 620C780 600 960 520 1180 520C1400 520 1600 580 1600 580V980H-60V720Z" fill="url(#tiersGlow)" fill-opacity="0.22"/>
  <path d="M140 380C320 260 540 320 720 400C900 480 1100 500 1300 420" stroke="#FFE7C0" stroke-opacity="0.26" stroke-width="2" stroke-linecap="round" stroke-dasharray="16 36"/>
  <path d="M80 520C260 420 460 440 620 520C780 600 960 620 1200 540" stroke="#74D0FF" stroke-opacity="0.24" stroke-width="2" stroke-linecap="round" stroke-dasharray="10 24"/>
</svg>
